<svg width="59" height="61" viewBox="0 0 59 61" fill="none" xmlns="http://www.w3.org/2000/svg">
<g clip-path="url(#clip0_12_137)" filter="url(#filter0_d_12_137)">
<path d="M46.6868 27.4499H45.0306V2.58499C45.0306 2.0728 44.6066 1.65625 44.0849 1.65625H14.2678C13.7465 1.65625 13.3225 2.0728 13.3225 2.58499V22.3291H11.6663V2.58499C11.6663 1.15979 12.8331 0 14.2678 0H44.0849C45.5196 0 46.6868 1.15979 46.6868 2.58499V27.4499ZM24.5345 45.4649H32.2203V47.1211H24.5345V45.4649ZM19.1504 41.6394H29.56V43.2956H19.1504V41.6394Z" fill="#121212"/>
<path d="M15.5684 5.17081H42.7843V6.82706H15.5684V5.17081ZM52.5325 53H50.8763V49.8833L51.2121 49.6349C52.4427 48.724 53.1483 47.3348 53.1483 45.8239V36.1166L53.0447 34.0127C53.0439 33.2815 52.4725 32.72 51.7707 32.72C50.5012 32.72 50.4966 33.2293 50.4966 33.4496V33.4521H48.8404V32.9329C48.8404 32.2422 48.2694 31.6803 47.5679 31.6803C46.8661 31.6803 46.2947 32.2422 46.2947 32.9329H44.6384V31.8919C44.6384 31.2017 44.0666 30.6406 43.364 30.6406C42.6625 30.6406 42.0915 31.2017 42.0915 31.8919V33.0629H40.4353C40.4353 30.2456 40.4162 21.0799 40.4162 21.0795C40.4162 20.3479 39.8117 19.7537 39.0689 19.7537C38.3273 19.7537 37.724 20.3479 37.724 21.0778L37.7124 42.1039L36.057 42.1383L36.0139 41.1135L36.0131 36.7799C36.0131 35.4843 34.944 34.4301 33.6298 34.4301H33.388V37.5124L33.4877 38.1629L33.388 38.1944V42.5627L39.1923 49.3906C39.6743 49.6842 40.7541 50.2933 41.3885 50.4461L42.0224 50.5988V53H40.3661V51.8501C39.401 51.4713 38.3468 50.8175 38.2056 50.7289L38.0975 50.661L31.7317 43.1722L31.7296 37.6188L31.7069 36.9882L31.7317 36.9803V34.3328L31.6828 34.3262L31.7317 33.3627V32.8323L31.7657 32.8302L31.769 32.7739L33.6289 32.7735C34.5407 32.7735 35.3833 33.0749 36.0603 33.5821L36.0674 21.0766C36.0674 19.4336 37.4135 18.0966 39.0685 18.0966C40.7247 18.0966 42.0721 19.4336 42.0721 21.077C42.0721 21.077 42.0812 25.6048 42.087 29.2742C42.4851 29.0822 42.9215 28.9827 43.3635 28.9831C43.8912 28.9827 44.4092 29.1245 44.8631 29.3935C45.3171 29.6625 45.6902 30.0488 45.9432 30.5118C46.4244 30.192 46.9896 30.0217 47.5675 30.0224C48.0673 30.0221 48.5589 30.1495 48.9956 30.3924C49.4324 30.6354 49.7998 30.9859 50.0631 31.4108C50.5202 31.1835 51.0953 31.0625 51.7703 31.0625C53.3855 31.0625 54.6997 32.3673 54.6997 33.9709L54.8033 36.0748L54.8041 45.8226C54.8041 47.7224 53.9814 49.4767 52.5325 50.6995V53ZM16.1075 46.481L14.5775 45.8462C15.1112 44.5602 15.3932 43.0989 15.3932 41.6216C15.3932 38.4204 14.0819 35.4748 11.971 33.9345L11.4803 33.5767L12.9751 29.1355L14.3717 29.1786C15.105 29.2063 15.787 28.9189 16.3133 28.4142C16.5711 28.1694 16.7774 27.8755 16.9201 27.5499C17.0628 27.2242 17.139 26.8733 17.1443 26.5178L17.1526 26.0213L11.3706 25.9352L8.47754 32.4149V45.9999H6.82129V32.0625L10.316 24.2632L18.7674 24.3895L18.8109 25.1588C18.8179 25.2508 18.8208 25.3141 18.8192 25.3804L18.8001 26.5451C18.7921 27.1197 18.6693 27.6869 18.439 28.2134C18.2087 28.7398 17.8755 29.215 17.459 29.6108C16.6201 30.417 15.4956 30.8572 14.3324 30.8348L14.1523 30.829L13.4289 32.978C15.6752 34.8951 17.0486 38.1438 17.0486 41.6216C17.0495 43.3142 16.724 44.9949 16.1075 46.481Z" fill="#121212"/>
<path d="M22.487 53H20.8308V47.182H5.85205V53H4.1958V45.5257H22.487V53ZM27.575 17.442H17.3042V9.39093H27.575V17.442ZM18.9604 15.7857H25.9188V11.0472H18.9604V15.7857ZM16.9212 20.0493H33.2982V21.7056H16.9212V20.0493ZM20.69 24.3121H33.2982V25.9683H20.69V24.3121Z" fill="#121212"/>
<path d="M20.6899 28.5753H33.2981V30.2315H20.6899V28.5753Z" fill="#121212"/>
<path d="M16.9211 32.8389H29.1252V34.4951H16.9211V32.8389Z" fill="#121212"/>
<path d="M39.8997 15.4681H38.2434V13.8119H39.8997V15.4681ZM39.8997 12.1556H38.2434V10.4994H39.8997V12.1556ZM38.2434 8.84312V8.8071H39.8997L38.2434 8.84312Z" fill="#121212"/>
</g>
<defs>
<filter id="filter0_d_12_137" x="-1" y="0" width="61" height="61" filterUnits="userSpaceOnUse" color-interpolation-filters="sRGB">
<feFlood flood-opacity="0" result="BackgroundImageFix"/>
<feColorMatrix in="SourceAlpha" type="matrix" values="0 0 0 0 0 0 0 0 0 0 0 0 0 0 0 0 0 0 127 0" result="hardAlpha"/>
<feOffset dy="4"/>
<feGaussianBlur stdDeviation="2"/>
<feComposite in2="hardAlpha" operator="out"/>
<feColorMatrix type="matrix" values="0 0 0 0 0 0 0 0 0 0 0 0 0 0 0 0 0 0 0.25 0"/>
<feBlend mode="normal" in2="BackgroundImageFix" result="effect1_dropShadow_12_137"/>
<feBlend mode="normal" in="SourceGraphic" in2="effect1_dropShadow_12_137" result="shape"/>
</filter>
<clipPath id="clip0_12_137">
<rect width="53" height="53" fill="white" transform="translate(3)"/>
</clipPath>
</defs>
</svg>
